PathFileType	4	(X/Y/Z)	s08c0203.trc
DataRate	CameraRate	NumFrames	NumMarkers	Units	OrigDataRate	OrigDataStartFrame	OrigNumFrames
200	200	7	50	mm	200	1000	2000
Frame#	Time	racr			lacr			c7			jug			rlel			rdr			llel			ldr			s2			lic			ric			lasi			rasi			rpsi			lpsi			rgt			lgt			rth1			rth2			rth3			rth4			rlfc			rmfc			rsh1			rsh2			rsh3			rsh4			rlmal			rmmal			rcal			rtoe			rmt5			lth1			lth2			lth4			lth3			llfc			lmfc			llmal			lmmal			lcal			lmt5			lsh1			lsh2			lsh3			lsh4			ltoe			SBIKE			LBIKE			RBIKE			
		X1	Y1	Z1	X2	Y2	Z2	X3	Y3	Z3	X4	Y4	Z4	X5	Y5	Z5	X6	Y6	Z6	X7	Y7	Z7	X8	Y8	Z8	X9	Y9	Z9	X10	Y10	Z10	X11	Y11	Z11	X12	Y12	Z12	X13	Y13	Z13	X14	Y14	Z14	X15	Y15	Z15	X16	Y16	Z16	X17	Y17	Z17	X18	Y18	Z18	X19	Y19	Z19	X20	Y20	Z20	X21	Y21	Z21	X22	Y22	Z22	X23	Y23	Z23	X24	Y24	Z24	X25	Y25	Z25	X26	Y26	Z26	X27	Y27	Z27	X28	Y28	Z28	X29	Y29	Z29	X30	Y30	Z30	X31	Y31	Z31	X32	Y32	Z32	X33	Y33	Z33	X34	Y34	Z34	X35	Y35	Z35	X36	Y36	Z36	X37	Y37	Z37	X38	Y38	Z38	X39	Y39	Z39	X40	Y40	Z40	X41	Y41	Z41	X42	Y42	Z42	X43	Y43	Z43	X44	Y44	Z44	X45	Y45	Z45	X46	Y46	Z46	X47	Y47	Z47	X48	Y48	Z48	X49	Y49	Z49	X50	Y50	Z50	
1000	5.0000	503.073529	1348.951884	-79.613820	525.953615	1357.439020	-392.888762	482.819546	1422.222542	-234.358056	462.000460	1261.390003	-236.344340	542.168351	1119.903622	53.871877	747.139045	935.899828	-73.571576	540.038068	1102.947671	-523.249209	727.603990	922.667381	-418.579609	-68.759506	1194.088060	-265.947162	93.267390	1204.048087	-416.987252	75.292373	1212.819582	-98.630125	118.343176	1149.985467	-382.931795	112.222944	1166.029480	-133.960989	-43.446932	1238.872970	-217.034918	-37.751738	1237.963985	-312.121098	34.431398	1112.466309	-63.217667	32.686205	1066.805137	-439.276809	185.878198	1030.122825	-65.422687	271.768032	1006.561982	-72.626440	331.956045	944.122453	-77.461352	288.603885	1036.493846	-87.627841	414.906476	867.386496	-97.695427	392.100298	851.099268	-208.288695	313.031093	791.506002	-62.506673	271.393069	711.805819	-74.625139	199.256537	665.488593	-72.718975	296.321966	692.886198	-100.767431	112.055563	582.450500	-71.996315	137.464790	586.789297	-158.925543	31.744887	600.346507	-115.268856	266.707847	414.083528	-110.951490	177.184766	445.735996	-43.609096	101.746214	945.669359	-451.609955	162.385934	882.630196	-448.340530	193.483017	899.934953	-439.150633	182.870498	796.203232	-445.128753	226.650397	677.513824	-422.166132	220.213338	652.593670	-325.525725	230.935561	256.792456	-414.613690	269.903738	293.312990	-345.504334	171.759362	234.582175	-373.551247	380.861929	177.031889	-423.546176	216.616344	546.274706	-446.105517	242.727279	465.931835	-430.275812	226.424446	378.975080	-427.665067	265.349872	471.032436	-397.479206	459.950652	212.395208	-354.075515	-201.162010	920.237573	-231.066792	-10.511652	79.440535	-427.979186	-10.570822	80.235673	-29.740443	
1001	5.0050	503.422671	1346.780644	-76.716879	526.439816	1357.763116	-388.861210	483.154862	1421.022083	-230.302994	462.717574	1260.162137	-233.654519	543.462070	1117.461176	55.370676	747.945800	935.175717	-74.383405	541.119388	1104.834620	-521.968109	727.983672	922.824998	-418.725797	-68.694896	1194.773752	-268.524905	95.131678	1203.495371	-417.656293	73.354069	1213.385933	-99.815342	118.879709	1148.820524	-383.874691	110.631156	1167.874942	-134.408110	-44.341767	1239.156078	-219.179748	-37.956784	1238.578365	-314.149792	32.821566	1114.674462	-63.900962	31.375283	1066.134479	-439.963427	185.200697	1034.352446	-66.734534	271.678938	1012.476763	-72.426769	333.206033	951.432233	-75.586028	288.180101	1042.809079	-87.741446	417.830230	875.437273	-96.420608	395.570794	858.574040	-207.224595	316.645566	798.735864	-62.163084	275.412531	718.726105	-74.192768	203.679632	672.182648	-72.216289	300.362493	699.828215	-99.969326	117.376496	587.910967	-71.897205	142.719966	593.003680	-158.773027	36.297245	604.365767	-115.048356	275.127932	423.552661	-111.344773	185.325728	453.085789	-43.758179	97.761906	943.984412	-453.304269	156.967375	879.470409	-450.726842	188.537626	895.999995	-441.614539	175.341703	792.539411	-447.687314	216.291417	672.810404	-423.813191	210.836672	648.365211	-327.085131	223.682493	252.596374	-414.981860	263.327821	289.178298	-346.353099	164.840711	231.837112	-373.559482	372.768211	170.187667	-423.458414	205.790054	541.607724	-447.663091	232.816894	461.560586	-431.883383	217.238611	374.532805	-428.785657	256.109024	466.964892	-399.676695	452.574703	204.094501	-354.055304	-201.258805	919.831623	-232.544279	-10.505218	79.441955	-427.981842	-10.550715	80.460812	-29.611342	
1002	5.0100	503.804432	1344.634398	-73.808858	526.840196	1357.950703	-384.912603	483.415083	1419.674512	-226.444055	463.549080	1258.770387	-230.957752	544.765281	1114.716149	56.709355	749.105799	934.061428	-74.402071	542.127870	1106.528228	-520.624957	728.309492	922.836357	-419.112759	-68.938558	1195.271254	-269.844507	96.937536	1202.943587	-417.972758	71.681580	1213.864616	-100.883807	119.403899	1147.659208	-384.598209	107.596487	1170.907279	-130.814534	-45.261459	1240.025606	-220.937330	-37.815315	1239.068329	-316.017679	31.350471	1117.028935	-64.335988	30.042811	1065.695810	-440.598492	184.915671	1039.576573	-66.718859	271.527416	1018.610243	-72.449541	333.675717	958.127214	-74.261651	287.767759	1049.437370	-86.548674	420.395247	883.275852	-95.120761	398.792534	866.145262	-206.166267	320.711549	805.872045	-61.326352	280.028825	725.289420	-73.138446	208.426393	678.172002	-71.592941	304.893283	706.598976	-99.237255	123.042312	592.610391	-71.648325	148.632627	598.508357	-158.880184	41.379859	607.581579	-114.654161	284.247263	432.681327	-111.620204	193.861542	459.905936	-43.912599	93.873700	942.634713	-455.478110	151.490865	876.510429	-453.168088	183.475966	892.299128	-444.135591	167.641598	789.169717	-450.208754	205.790725	668.164810	-424.398042	202.675199	644.736255	-327.359638	216.074457	248.948736	-415.398756	256.271328	285.712403	-347.193812	157.474274	229.383382	-373.592444	364.249223	163.850312	-423.379860	195.090319	537.478688	-449.028947	222.863476	457.643201	-433.191828	207.930267	370.572951	-429.697386	246.966073	463.317181	-401.721106	444.716479	196.437981	-354.108803	-201.236315	919.847131	-232.715198	-10.495757	79.442276	-427.999496	-10.552631	80.503100	-29.599387	
1003	5.0150	504.274517	1342.580920	-71.035733	527.230850	1357.916791	-381.076069	483.960002	1418.408116	-222.704569	464.058414	1257.541388	-228.302001	545.588998	1111.492617	56.274224	749.732193	933.035946	-74.704140	543.070653	1107.998990	-519.275234	728.876909	923.056304	-419.458820	-68.918734	1195.874260	-271.309037	98.725125	1202.388880	-418.422643	70.162469	1214.587506	-101.750283	119.856437	1146.646702	-385.186734	104.763544	1173.611024	-127.665879	-46.796982	1241.168854	-222.272558	-37.333557	1239.679764	-317.839339	30.091993	1119.446886	-64.576799	28.762587	1065.388089	-441.103490	184.322025	1044.318452	-67.039986	271.188362	1024.361473	-72.120327	334.204568	964.890439	-73.525670	287.128297	1055.162214	-86.952514	422.515182	890.760503	-93.677302	401.659191	873.569854	-204.902014	323.680465	811.908045	-60.999545	284.632186	731.407682	-72.186698	213.351618	683.619139	-70.870224	309.665524	712.979182	-98.220716	129.102902	596.672442	-71.307911	154.114560	603.409681	-158.102355	46.145109	610.058760	-114.339841	293.583435	440.997617	-111.839511	202.394425	465.737979	-44.142431	90.224265	941.861466	-458.072837	145.983775	873.746111	-455.551615	178.500115	888.724431	-446.759691	160.037622	786.024066	-452.299725	197.489863	665.867998	-428.313498	198.087608	641.643255	-324.657629	207.962818	245.836463	-415.751030	248.730813	282.522917	-347.947396	149.562820	227.173037	-373.600224	355.266369	158.258755	-423.307655	184.851369	533.849662	-450.005716	213.080908	454.272706	-434.211337	198.618661	367.182677	-430.262380	238.006395	460.147341	-403.430302	436.334871	189.572271	-354.209824	-201.497688	919.177624	-235.983473	-10.502176	79.459920	-428.013844	-10.549490	80.342736	-29.782399	
1004	5.0200	504.731140	1340.606470	-68.331126	527.485962	1357.788870	-377.315975	484.275031	1416.837220	-218.927313	464.870691	1255.941164	-225.393665	546.778617	1108.763796	57.191483	750.143925	932.766812	-75.528250	543.992716	1109.169180	-517.974622	729.437381	923.255418	-419.620717	-68.689801	1196.497607	-272.853503	100.286952	1201.836071	-418.312451	68.540273	1215.359867	-102.642579	120.297527	1145.830253	-385.654331	102.128430	1175.998491	-124.934221	-46.969469	1242.143074	-224.080342	-36.876110	1240.264226	-319.809649	28.941985	1122.133818	-64.676048	27.620925	1065.288456	-441.494155	183.515460	1048.757441	-67.037056	270.637021	1029.934848	-70.671987	334.335271	971.167516	-72.446895	285.762963	1059.552836	-87.922483	424.483159	898.225576	-91.874206	404.117623	879.643710	-200.210174	327.772370	818.038947	-59.383275	289.273857	736.962176	-71.113951	218.489875	688.339821	-70.029988	314.521887	718.875179	-97.273467	135.386072	600.044379	-70.943809	159.996302	607.237612	-157.581515	51.580916	611.726727	-113.870224	303.256338	448.895521	-112.094921	211.545776	471.196675	-44.226171	86.297834	940.666820	-459.632227	140.465678	871.234589	-457.884510	173.496565	885.545125	-449.375705	152.390862	783.199254	-454.117432	188.595927	662.872013	-429.493521	191.336694	639.137759	-324.904053	199.365078	243.118229	-415.990020	228.340794	269.611598	-336.443092	141.188743	225.150269	-373.376626	345.886768	153.355481	-423.223656	175.313220	531.185244	-450.929270	204.252583	451.824472	-435.743080	189.516893	364.445127	-430.531058	229.295504	457.525325	-404.643086	427.455721	183.437465	-354.076747	-201.533492	917.576648	-240.357030	-10.507477	79.463683	-428.022990	-10.560459	80.376623	-29.783616	
1005	5.0250	505.208456	1338.715656	-65.400747	527.835574	1357.234437	-373.645165	484.553062	1415.177433	-215.376720	465.794719	1254.227002	-222.401556	548.733786	1106.197424	60.089640	750.396911	932.569658	-75.939772	545.001861	1109.963592	-516.410968	729.992061	923.377235	-419.614414	-68.654483	1197.597142	-274.249793	101.898519	1201.379745	-418.226230	67.349658	1216.369192	-103.024593	120.584137	1145.123126	-385.874915	99.687294	1178.082358	-122.591633	-46.748051	1243.168807	-225.858267	-35.865468	1240.909445	-321.828935	28.049370	1124.990915	-64.641149	26.654879	1065.379764	-441.762786	182.421983	1052.889184	-66.839566	269.732375	1034.873035	-70.036205	333.998204	976.999076	-70.356504	284.703929	1064.570496	-87.077139	425.417314	904.806443	-89.890833	406.334175	888.159636	-201.941098	331.483337	823.583333	-57.800415	293.872370	741.979047	-70.089133	223.762079	692.457201	-69.096626	319.319134	724.066774	-96.332938	141.719371	602.515039	-70.613551	167.278309	610.384421	-156.624454	57.381624	612.333980	-113.607440	313.227668	456.549186	-112.328800	220.893688	476.195768	-44.191471	82.077883	938.877927	-459.663769	135.106986	869.037817	-460.002017	168.599467	882.613718	-451.935298	145.077575	780.757764	-455.582055	180.410539	660.408823	-430.149174	184.930115	637.156054	-325.681647	190.275733	240.746946	-415.975854	219.134897	266.974139	-335.989178	132.196746	223.227243	-372.864679	335.914099	149.132834	-423.175945	166.767074	529.017214	-451.287272	195.607870	449.696475	-435.930261	180.673851	362.276200	-430.465416	221.008509	455.313224	-405.195452	418.210408	178.126858	-353.908747	-201.221529	921.139183	-227.576422	-10.523788	79.458975	-428.022093	-10.575862	80.536821	-29.847577	
1006	5.0300	505.660135	1336.761456	-62.847023	528.139985	1356.455392	-370.183515	484.819191	1413.458711	-212.032003	466.575436	1252.476152	-219.671245	549.328446	1103.337923	61.088524	750.360118	932.211812	-75.752940	545.734528	1110.714915	-515.742138	730.488856	923.336727	-419.395753	-68.577555	1198.955561	-275.157310	103.419583	1201.166342	-418.080048	66.055156	1217.403788	-103.570315	120.800777	1144.589632	-386.029696	97.436240	1179.874818	-120.610176	-45.529121	1244.255988	-227.764861	-34.519847	1242.304898	-324.595174	27.199468	1128.030391	-64.560789	25.925537	1065.606108	-441.983315	181.082093	1056.371202	-66.396723	268.481715	1038.956655	-69.334883	333.393432	981.806231	-69.547767	283.370777	1069.096785	-85.669608	426.464584	911.316621	-88.281592	408.290406	893.808626	-197.293998	334.857190	828.415549	-56.174329	298.410208	746.371588	-68.945084	228.986772	695.857070	-68.160845	324.169689	729.162283	-94.932097	147.683780	604.270697	-70.205455	171.884278	612.632059	-156.763999	62.521408	611.583382	-113.083783	323.216507	464.103762	-112.491555	230.348303	480.618866	-44.150207	78.220627	938.011613	-460.959119	129.864860	867.088521	-462.047642	163.767536	880.095163	-454.508476	138.255272	778.718934	-456.888731	173.331861	658.707305	-430.668838	179.150921	635.730429	-325.707218	180.616697	238.750297	-415.715574	209.842561	264.613356	-335.247599	122.575218	221.315655	-372.112982	325.583324	145.563539	-423.135527	159.320776	527.498907	-451.025804	187.599883	447.976301	-435.649391	172.084262	360.728769	-429.977737	213.248093	453.461372	-405.070417	408.185527	173.890953	-354.177776	-201.333604	920.744068	-229.407983	-10.542180	79.457968	-428.043521	-10.614869	80.555803	-29.876443	
